<?xml version='1.0' encoding='utf-8'?>
<svg xmlns="http://www.w3.org/2000/svg" width="2780" height="2570" viewBox="0 0 2780 2570"><rect x="0" y="0" width="2780" height="2570" fill="white" /><defs><marker id="arrow" markerWidth="8" markerHeight="8" refX="7" refY="4" orient="auto"><path d="M0,0 L8,4 L0,8 Z" fill="#52728B" /></marker><marker id="future" markerWidth="8" markerHeight="8" refX="7" refY="4" orient="auto"><path d="M0,0 L8,4 L0,8 Z" fill="#B38A36" /></marker></defs><rect x="40" y="150" width="520" height="1110" fill="#F3F7FB" stroke="#C3D2E1" stroke-width="1" /><rect x="40" y="150" width="520" height="50" fill="#126C70" /><rect x="620" y="150" width="1600" height="330" fill="#F3F7FB" stroke="#C3D2E1" stroke-width="1" /><rect x="620" y="150" width="1600" height="50" fill="#193954" /><rect x="620" y="535" width="1600" height="690" fill="#F3F7FB" stroke="#C3D2E1" stroke-width="1" /><rect x="620" y="535" width="1600" height="50" fill="#193954" /><rect x="620" y="1290" width="1600" height="525" fill="#F3F7FB" stroke="#C3D2E1" stroke-width="1" /><rect x="620" y="1290" width="1600" height="50" fill="#126C70" /><rect x="650" y="1600" width="330" height="160" fill="#FFFFFF" stroke="#9AAFBE" stroke-width="1" /><rect x="1020" y="1530" width="640" height="265" fill="#F7F9FC" stroke="#C3D2E1" stroke-width="1" /><rect x="620" y="1855" width="1600" height="320" fill="#F3F7FB" stroke="#C3D2E1" stroke-width="1" /><rect x="620" y="1855" width="1600" height="50" fill="#126C70" /><rect x="620" y="2260" width="720" height="180" fill="#F3F7FB" stroke="#C3D2E1" stroke-width="1" /><rect x="620" y="2260" width="720" height="50" fill="#193954" /><rect x="1400" y="2260" width="820" height="180" fill="#F3F7FB" stroke="#C3D2E1" stroke-width="1" /><rect x="1400" y="2260" width="820" height="50" fill="#193954" /><rect x="650" y="780" width="1530" height="410" fill="#F3F7FB" stroke="#C3D2E1" stroke-width="1" /><rect x="650" y="780" width="1530" height="50" fill="#193954" /><rect x="680" y="955" width="1470" height="215" fill="#FFFFFF" stroke="#9AAFBE" stroke-width="1" /><polyline points="300.0,315 300.0,355" fill="none" stroke="#52728B" stroke-width="1.8" marker-end="url(#arrow)" stroke-dasharray="2 4" /><polyline points="520,512.5 545,512.5 545,850 300,850 300.0,875" fill="none" stroke="#52728B" stroke-width="1.8" marker-end="url(#arrow)" stroke-dasharray="2 4" /><polyline points="520,602.5 545,602.5 545,850 300,850 300.0,875" fill="none" stroke="#52728B" stroke-width="1.8" marker-end="url(#arrow)" stroke-dasharray="2 4" /><polyline points="520,692.5 545,692.5 545,850 300,850 300.0,875" fill="none" stroke="#52728B" stroke-width="1.8" marker-end="url(#arrow)" stroke-dasharray="2 4" /><polyline points="520,782.5 545,782.5 545,850 300,850 300.0,875" fill="none" stroke="#52728B" stroke-width="1.8" marker-end="url(#arrow)" stroke-dasharray="2 4" /><polyline points="70,937.5 55,937 55,397 70,397.5" fill="none" stroke="#52728B" stroke-width="1.8" marker-end="url(#arrow)" stroke-dasharray="2 4" /><polyline points="1550,255.0 1610,255.0" fill="none" stroke="#B38A36" stroke-width="1.8" marker-end="url(#future)" stroke-dasharray="7 4" /><polyline points="870.0,295 870,505 797.5,505 797.5,610" fill="none" stroke="#52728B" stroke-width="1.8" marker-end="url(#arrow)" /><polyline points="2150,1062.5 2220.0,1062.5 2220.0,1085.0 2290,1085.0" fill="none" stroke="#52728B" stroke-width="1.8" marker-end="url(#arrow)" /><polyline points="1415.0,1170 1415,1255 810,1255 810.0,1360" fill="none" stroke="#52728B" stroke-width="1.8" marker-end="url(#arrow)" /><polyline points="530,397.5 595,397 595,1407 650,1407.5" fill="none" stroke="#52728B" stroke-width="1.8" marker-end="url(#arrow)" stroke-dasharray="2 4" /><polyline points="970,1407.5 1040,1407.5" fill="none" stroke="#52728B" stroke-width="1.8" marker-end="url(#arrow)" /><polyline points="530,937.5 580,937 580,1245 1390,1245 1390.0,1360" fill="none" stroke="#52728B" stroke-width="1.8" marker-end="url(#arrow)" stroke-dasharray="2 4" /><polyline points="2290,1085.0 2275,1085 2275,1350 1800,1350 1800,1407 1740,1407.5" fill="none" stroke="#52728B" stroke-width="1.8" marker-end="url(#arrow)" /><polyline points="1390.0,1455 1390,1485 815,1485 815.0,1600" fill="none" stroke="#52728B" stroke-width="1.8" marker-end="url(#arrow)" /><polyline points="1390.0,1455 1390,1500 1125,1500 1125.0,1600" fill="none" stroke="#52728B" stroke-width="1.8" marker-end="url(#arrow)" /><polyline points="1390.0,1455 1390,1515 1955,1515 1955.0,1600" fill="none" stroke="#52728B" stroke-width="1.8" marker-end="url(#arrow)" /><polyline points="1210,1632.5 1240,1632.5" fill="none" stroke="#52728B" stroke-width="1.8" marker-end="url(#arrow)" /><polyline points="1420,1632.5 1450,1632.5" fill="none" stroke="#52728B" stroke-width="1.8" marker-end="url(#arrow)" /><polyline points="1542.5,1665 1542,1737 1420,1737.5" fill="none" stroke="#52728B" stroke-width="1.8" marker-end="url(#arrow)" /><polyline points="815.0,1760 815,1965 1040,1965.0" fill="none" stroke="#52728B" stroke-width="1.8" marker-end="url(#arrow)" /><polyline points="1325,1965.0 1400,1965.0" fill="none" stroke="#52728B" stroke-width="1.8" marker-end="url(#arrow)" /><polyline points="1685,1965.0 1760,1965.0" fill="none" stroke="#52728B" stroke-width="1.8" marker-end="url(#arrow)" /><polyline points="1330.0,1775 1330,1830 1542,1830 1542.5,1910" fill="none" stroke="#52728B" stroke-width="1.8" marker-end="url(#arrow)" /><polyline points="1955.0,1760 1955,1845 1628,1845 1628.0,1910" fill="none" stroke="#52728B" stroke-width="1.8" marker-end="url(#arrow)" /><polyline points="1542.5,2020 1542,2050 805,2050 805.0,2075" fill="none" stroke="#52728B" stroke-width="1.8" marker-end="url(#arrow)" /><polyline points="960,2110.0 1040,2110.0" fill="none" stroke="#52728B" stroke-width="1.8" marker-end="url(#arrow)" /><polyline points="1330.0,1665 1330,1680 1685,1680 1685,1565 2240,1565 2240,1542 2290,1542.5" fill="none" stroke="#52728B" stroke-width="1.8" marker-end="url(#arrow)" /><polyline points="520,692.5 610,692 610,125 2760,125 2760,1430 2515,1430 2515.0,1475" fill="none" stroke="#52728B" stroke-width="1.8" marker-end="url(#arrow)" stroke-dasharray="2 4" /><polyline points="2150,1062.5 2250,1062.5 2250,1835 2515,1835 2515.0,1855" fill="none" stroke="#B38A36" stroke-width="1.8" marker-end="url(#future)" stroke-dasharray="7 4" /><polyline points="2180,1965.0 2235.0,1965.0 2235.0,1922.5 2290,1922.5" fill="none" stroke="#B38A36" stroke-width="1.8" marker-end="url(#future)" stroke-dasharray="7 4" /><polyline points="2180,1965.0 2205,1965 2205,2225 980,2225 980.0,2320" fill="none" stroke="#52728B" stroke-width="1.8" marker-end="url(#arrow)" /><polyline points="1300,2365.0 1440,2365.0" fill="none" stroke="#52728B" stroke-width="1.8" marker-end="url(#arrow)" /><polyline points="1785,2365.0 1835,2365.0" fill="none" stroke="#52728B" stroke-width="1.8" marker-end="url(#arrow)" /><polyline points="1345.0,295 1345,320 1360,320 1360.0,345" fill="none" stroke="#B38A36" stroke-width="1.8" marker-end="url(#future)" stroke-dasharray="7 4" /><polyline points="1580,400.0 1640,400.0" fill="none" stroke="#B38A36" stroke-width="1.8" marker-end="url(#future)" stroke-dasharray="7 4" /><polyline points="1910.0,455 1910,515 1200,515 1200.0,610" fill="none" stroke="#B38A36" stroke-width="1.8" marker-end="url(#future)" stroke-dasharray="7 4" /><polyline points="945,660.0 995,660.0" fill="none" stroke="#52728B" stroke-width="1.8" marker-end="url(#arrow)" /><polyline points="1405,660.0 1480,660.0" fill="none" stroke="#52728B" stroke-width="1.8" marker-end="url(#arrow)" /><polyline points="1815.0,710 1815,750 1415,750 1415.0,780" fill="none" stroke="#52728B" stroke-width="1.8" marker-end="url(#arrow)" /><rect x="40" y="20" width="2700" height="55" fill="#FFFFFF" stroke="#FFFFFF" stroke-width="1" /><text x="53" y="60.2" fill="#17324F" font-family="Arial" font-size="34" font-weight="bold">VANTAGE Intelligence | Consolidated layered architecture</text><rect x="40" y="80" width="2700" height="35" fill="#FFFFFF" stroke="#FFFFFF" stroke-width="1" /><text x="53" y="104.2" fill="#17324F" font-family="Arial" font-size="18" font-weight="normal">v1.2 • 09 Oct 2026 • Live audio vision + concurrent ingestion workers • Logical design; implementation and guarantees unverified</text><text x="53" y="184" fill="#FFFFFF" font-family="Arial" font-size="22" font-weight="bold">Signal Management</text><rect x="70" y="220" width="460" height="95" fill="#FFFFFF" stroke="#9AAFBE" stroke-width="1" /><text x="83" y="263.2" fill="#17324F" font-family="Arial" font-size="17" font-weight="bold">Signal Management UI</text><text x="83" y="284.5" fill="#17324F" font-family="Arial" font-size="17" font-weight="normal">Manage catalog; view signals</text><rect x="70" y="355" width="460" height="85" fill="#FFFFFF" stroke="#9AAFBE" stroke-width="1" /><text x="83" y="393.2" fill="#17324F" font-family="Arial" font-size="17" font-weight="bold">Signal Catalog</text><text x="83" y="414.5" fill="#17324F" font-family="Arial" font-size="17" font-weight="normal">Applicable signal definitions</text><rect x="70" y="480" width="450" height="65" fill="#FFFFFF" stroke="#9AAFBE" stroke-width="1" /><text x="83" y="508.8" fill="#17324F" font-family="Arial" font-size="15" font-weight="bold">Signal Taxonomy</text><text x="83" y="527.5" fill="#17324F" font-family="Arial" font-size="15" font-weight="normal">Domain → Group → Signal</text><rect x="70" y="570" width="450" height="65" fill="#FFFFFF" stroke="#9AAFBE" stroke-width="1" /><text x="83" y="598.8" fill="#17324F" font-family="Arial" font-size="15" font-weight="bold">Entity Dictionary</text><text x="83" y="617.5" fill="#17324F" font-family="Arial" font-size="15" font-weight="normal">Products, fees, benefits, credit concepts</text><rect x="70" y="660" width="450" height="65" fill="#FFFFFF" stroke="#9AAFBE" stroke-width="1" /><text x="83" y="688.8" fill="#17324F" font-family="Arial" font-size="15" font-weight="bold">Curated Examples</text><text x="83" y="707.5" fill="#17324F" font-family="Arial" font-size="15" font-weight="normal">Positive / Negative</text><rect x="70" y="750" width="450" height="65" fill="#FFFFFF" stroke="#9AAFBE" stroke-width="1" /><text x="83" y="778.8" fill="#17324F" font-family="Arial" font-size="15" font-weight="bold">Regulatory / Policy Mappings</text><text x="83" y="797.5" fill="#17324F" font-family="Arial" font-size="15" font-weight="normal">Reference metadata; not a policy service</text><rect x="70" y="875" width="460" height="125" fill="#FFFFFF" stroke="#9AAFBE" stroke-width="1" /><text x="83" y="913.5" fill="#17324F" font-family="Arial" font-size="16" font-weight="bold">Signal Definitions / schema</text><text x="83" y="933.5" fill="#17324F" font-family="Arial" font-size="16" font-weight="normal">Detection method • criteria • thresholds</text><text x="83" y="953.5" fill="#17324F" font-family="Arial" font-size="16" font-weight="normal">Unified deterministic / semantic / LLM definition</text><text x="83" y="973.5" fill="#17324F" font-family="Arial" font-size="16" font-weight="normal">Exact schema still under agreement</text><rect x="70" y="1030" width="460" height="200" fill="#F7F9FC" stroke="#C3D2E1" stroke-width="1" /><text x="83" y="1079.4" fill="#17324F" font-family="Arial" font-size="15" font-weight="bold">Planning fields</text><text x="83" y="1098.1" fill="#17324F" font-family="Arial" font-size="15" font-weight="normal">signal_id / name / description / domain / group</text><text x="83" y="1116.9" fill="#17324F" font-family="Arial" font-size="15" font-weight="normal">detection_method / detection_config</text><text x="83" y="1135.6" fill="#17324F" font-family="Arial" font-size="15" font-weight="normal">applicable_products / applicable_speakers</text><text x="83" y="1154.4" fill="#17324F" font-family="Arial" font-size="15" font-weight="normal">entity_refs / example_refs / requirement_refs</text><text x="83" y="1173.1" fill="#17324F" font-family="Arial" font-size="15" font-weight="normal">regulatory_refs / severity / version / status</text><text x="83" y="1191.9" fill="#17324F" font-family="Arial" font-size="15" font-weight="normal">Types, requiredness and lifecycle rules: OPEN</text><text x="633" y="184" fill="#FFFFFF" font-family="Arial" font-size="22" font-weight="bold">Conversation sources / adapters</text><rect x="650" y="215" width="440" height="80" fill="#F0EAF9" stroke="#8A6AB0" stroke-width="1" /><text x="663" y="240.1" fill="#17324F" font-family="Arial" font-size="17" font-weight="bold">Transcript Emulator • TEST SOURCE</text><text x="663" y="261.4" fill="#17324F" font-family="Arial" font-size="17" font-weight="normal">Separate module/service</text><text x="663" y="282.6" fill="#17324F" font-family="Arial" font-size="17" font-weight="normal">Simulated concurrent calls</text><rect x="1140" y="215" width="410" height="80" fill="#FFFAED" stroke="#B38A36" stroke-width="1" stroke-dasharray="7 4" /><text x="1153" y="241.0" fill="#17324F" font-family="Arial" font-size="16" font-weight="bold">Genesys Cloud</text><text x="1153" y="261.0" fill="#17324F" font-family="Arial" font-size="16" font-weight="normal">Future live source</text><text x="1153" y="281.0" fill="#17324F" font-family="Arial" font-size="16" font-weight="normal">OAuth in reference; live setup TBD</text><rect x="1610" y="215" width="570" height="80" fill="#FFFAED" stroke="#B38A36" stroke-width="1" stroke-dasharray="7 4" /><text x="1623" y="251.0" fill="#17324F" font-family="Arial" font-size="16" font-weight="bold">Future Genesys / outreach adapters</text><text x="1623" y="271.0" fill="#17324F" font-family="Arial" font-size="16" font-weight="normal">Provider contracts not established</text><text x="633" y="569" fill="#FFFFFF" font-family="Arial" font-size="22" font-weight="bold">Interaction Streaming • queued, concurrent ingestion</text><rect x="650" y="610" width="295" height="100" fill="#FFFFFF" stroke="#9AAFBE" stroke-width="1" /><text x="663" y="645.1" fill="#17324F" font-family="Arial" font-size="17" font-weight="bold">Default WebSocket adapter</text><text x="663" y="666.4" fill="#17324F" font-family="Arial" font-size="17" font-weight="normal">Transcript source adaptation</text><text x="663" y="687.6" fill="#17324F" font-family="Arial" font-size="17" font-weight="normal">Logical entry</text><rect x="2290" y="1015" width="450" height="140" fill="#F7F9FC" stroke="#C3D2E1" stroke-width="1" /><text x="2303" y="1061.0" fill="#17324F" font-family="Arial" font-size="16" font-weight="bold">Context Cache</text><text x="2303" y="1081.0" fill="#17324F" font-family="Arial" font-size="16" font-weight="normal">Recent utterances + identified signals per call</text><text x="2303" y="1101.0" fill="#17324F" font-family="Arial" font-size="16" font-weight="normal">Bounded in-memory detection context</text><text x="2303" y="1121.0" fill="#17324F" font-family="Arial" font-size="16" font-weight="normal">Worker ownership / recovery still open</text><rect x="2290" y="1195" width="450" height="135" fill="#F7F9FC" stroke="#C3D2E1" stroke-width="1" /><text x="2303" y="1228.5" fill="#17324F" font-family="Arial" font-size="16" font-weight="bold">Storage distinction</text><text x="2303" y="1248.5" fill="#17324F" font-family="Arial" font-size="16" font-weight="normal">Keep recent detection context separate from the</text><text x="2303" y="1268.5" fill="#17324F" font-family="Arial" font-size="16" font-weight="normal">larger conversation log.</text><text x="2303" y="1288.5" fill="#17324F" font-family="Arial" font-size="16" font-weight="normal">No unlimited-history dependency or mandatory</text><text x="2303" y="1308.5" fill="#17324F" font-family="Arial" font-size="16" font-weight="normal">entity enrichment inferred.</text><text x="633" y="1324" fill="#FFFFFF" font-family="Arial" font-size="22" font-weight="bold">Real-time Signal Detection</text><rect x="650" y="1360" width="320" height="95" fill="#FFFFFF" stroke="#9AAFBE" stroke-width="1" /><text x="663" y="1382.0" fill="#17324F" font-family="Arial" font-size="17" font-weight="bold">Call-metadata applicability</text><text x="663" y="1403.2" fill="#17324F" font-family="Arial" font-size="17" font-weight="normal">Select catalog signals for this</text><text x="663" y="1424.5" fill="#17324F" font-family="Arial" font-size="17" font-weight="normal">call</text><text x="663" y="1445.8" fill="#17324F" font-family="Arial" font-size="17" font-weight="normal">Before detection</text><rect x="1040" y="1360" width="700" height="95" fill="#FFFFFF" stroke="#9AAFBE" stroke-width="1" /><text x="1053" y="1392.6" fill="#17324F" font-family="Arial" font-size="17" font-weight="bold">Detector service / Signal Detector</text><text x="1053" y="1413.9" fill="#17324F" font-family="Arial" font-size="17" font-weight="normal">Configured method; not automatic all-path execution</text><text x="1053" y="1435.1" fill="#17324F" font-family="Arial" font-size="17" font-weight="normal">Scheduling and fallback policy: OPEN</text><text x="663" y="1628" fill="#17324F" font-family="Arial" font-size="16" font-weight="bold">Deterministic Detector</text><rect x="670" y="1650" width="135" height="35" fill="#FFFFFF" stroke="#9AAFBE" stroke-width="1" /><text x="683" y="1672.8" fill="#17324F" font-family="Arial" font-size="14" font-weight="bold">Rules</text><rect x="825" y="1650" width="135" height="35" fill="#FFFFFF" stroke="#9AAFBE" stroke-width="1" /><text x="838" y="1672.8" fill="#17324F" font-family="Arial" font-size="14" font-weight="bold">Regex</text><rect x="670" y="1700" width="135" height="35" fill="#FFFFFF" stroke="#9AAFBE" stroke-width="1" /><text x="683" y="1722.8" fill="#17324F" font-family="Arial" font-size="14" font-weight="bold">Fuzzy</text><rect x="825" y="1700" width="135" height="35" fill="#FFFFFF" stroke="#9AAFBE" stroke-width="1" /><text x="838" y="1722.8" fill="#17324F" font-family="Arial" font-size="14" font-weight="bold">Entity rules</text><text x="1033" y="1558" fill="#17324F" font-family="Arial" font-size="16" font-weight="bold">Semantic strategy</text><text x="1033" y="1578.0" fill="#17324F" font-family="Arial" font-size="16" font-weight="bold">Top-K + reranker retained; thresholds unspecified</text><rect x="1040" y="1600" width="170" height="65" fill="#FFFFFF" stroke="#9AAFBE" stroke-width="1" /><text x="1053" y="1628.8" fill="#17324F" font-family="Arial" font-size="15" font-weight="bold">Embedding</text><text x="1053" y="1647.5" fill="#17324F" font-family="Arial" font-size="15" font-weight="normal">Utterance vector</text><rect x="1240" y="1600" width="180" height="65" fill="#FFFFFF" stroke="#9AAFBE" stroke-width="1" /><text x="1253" y="1620.2" fill="#17324F" font-family="Arial" font-size="14" font-weight="bold">Vector Search</text><text x="1253" y="1637.8" fill="#17324F" font-family="Arial" font-size="14" font-weight="normal">Similarity</text><text x="1253" y="1655.2" fill="#17324F" font-family="Arial" font-size="14" font-weight="normal">retrieval</text><rect x="1450" y="1600" width="185" height="65" fill="#FFFFFF" stroke="#9AAFBE" stroke-width="1" /><text x="1463" y="1628.8" fill="#17324F" font-family="Arial" font-size="15" font-weight="bold">Top-K candidates</text><text x="1463" y="1647.5" fill="#17324F" font-family="Arial" font-size="15" font-weight="normal">K not selected</text><rect x="1240" y="1700" width="180" height="75" fill="#FFFFFF" stroke="#9AAFBE" stroke-width="1" /><text x="1253" y="1724.4" fill="#17324F" font-family="Arial" font-size="15" font-weight="bold">Reranker</text><text x="1253" y="1743.1" fill="#17324F" font-family="Arial" font-size="15" font-weight="normal">BGE reference</text><text x="1253" y="1761.9" fill="#17324F" font-family="Arial" font-size="15" font-weight="normal">Exact model OPEN</text><rect x="1730" y="1600" width="450" height="160" fill="#FFFFFF" stroke="#9AAFBE" stroke-width="1" /><text x="1743" y="1656.0" fill="#17324F" font-family="Arial" font-size="16" font-weight="bold">LLM-based detection</text><text x="1743" y="1676.0" fill="#17324F" font-family="Arial" font-size="16" font-weight="normal">Candidate + requirement + context</text><text x="1743" y="1696.0" fill="#17324F" font-family="Arial" font-size="16" font-weight="normal">Model / endpoint / invocation policy OPEN</text><text x="1743" y="1716.0" fill="#17324F" font-family="Arial" font-size="16" font-weight="normal">Distinct from later generation</text><text x="633" y="1889" fill="#FFFFFF" font-family="Arial" font-size="22" font-weight="bold">Signal evidence, resolution and output</text><rect x="1040" y="1910" width="285" height="110" fill="#FFFFFF" stroke="#9AAFBE" stroke-width="1" /><text x="1053" y="1971.4" fill="#17324F" font-family="Arial" font-size="17" font-weight="bold">Signal Evidence</text><rect x="1400" y="1910" width="285" height="110" fill="#E1F3EF" stroke="#126C70" stroke-width="2.5" /><text x="1413" y="1961.0" fill="#17324F" font-family="Arial" font-size="16" font-weight="bold">Signal Resolution</text><text x="1413" y="1981.0" fill="#17324F" font-family="Arial" font-size="16" font-weight="bold">Threshold-based acceptance</text><rect x="1760" y="1910" width="420" height="110" fill="#FFFFFF" stroke="#9AAFBE" stroke-width="1" /><text x="1773" y="1941.0" fill="#17324F" font-family="Arial" font-size="16" font-weight="bold">Detected Signal</text><text x="1773" y="1961.0" fill="#17324F" font-family="Arial" font-size="16" font-weight="normal">Signal ID • domain/group • evidence</text><text x="1773" y="1981.0" fill="#17324F" font-family="Arial" font-size="16" font-weight="normal">Confidence • entities • regulatory mapping</text><text x="1773" y="2001.0" fill="#17324F" font-family="Arial" font-size="16" font-weight="normal">Reference result fields</text><rect x="650" y="2075" width="310" height="70" fill="#FFFFFF" stroke="#9AAFBE" stroke-width="1" /><text x="663" y="2105.8" fill="#17324F" font-family="Arial" font-size="17" font-weight="bold">Signal Events</text><text x="663" y="2127.0" fill="#17324F" font-family="Arial" font-size="17" font-weight="normal">POC output</text><rect x="1040" y="2075" width="490" height="70" fill="#FFFFFF" stroke="#9AAFBE" stroke-width="1" /><text x="1053" y="2105.8" fill="#17324F" font-family="Arial" font-size="17" font-weight="bold">Real-Time Signal Workbench</text><text x="1053" y="2127.0" fill="#17324F" font-family="Arial" font-size="17" font-weight="normal">Evidence + latency display</text><rect x="1610" y="2075" width="570" height="70" fill="#F7F9FC" stroke="#C3D2E1" stroke-width="1" /><text x="1623" y="2106.2" fill="#17324F" font-family="Arial" font-size="15" font-weight="bold">Delivery mechanism: SSE / WebSocket proposed</text><text x="1623" y="2125.0" fill="#17324F" font-family="Arial" font-size="15" font-weight="normal">Final event contract / publication transport remain OPEN</text><rect x="2290" y="1475" width="450" height="135" fill="#F7F9FC" stroke="#C3D2E1" stroke-width="1" /><text x="2303" y="1518.5" fill="#17324F" font-family="Arial" font-size="16" font-weight="bold">Vector DB</text><text x="2303" y="1538.5" fill="#17324F" font-family="Arial" font-size="16" font-weight="normal">PostgreSQL / “p vector” as reported</text><text x="2303" y="1558.5" fill="#17324F" font-family="Arial" font-size="16" font-weight="normal">Signal examples + semantic representations</text><text x="2303" y="1578.5" fill="#17324F" font-family="Arial" font-size="16" font-weight="normal">Exact instance / extension / readiness OPEN</text><rect x="2290" y="1855" width="450" height="135" fill="#FFFAED" stroke="#B38A36" stroke-width="1" stroke-dasharray="7 4" /><text x="2303" y="1898.5" fill="#17324F" font-family="Arial" font-size="16" font-weight="bold">BigQuery — Utterance &amp; Call Log</text><text x="2303" y="1918.5" fill="#17324F" font-family="Arial" font-size="16" font-weight="normal">REFERENCE OPTION ONLY</text><text x="2303" y="1938.5" fill="#17324F" font-family="Arial" font-size="16" font-weight="normal">Persist utterances and detected results</text><text x="2303" y="1958.5" fill="#17324F" font-family="Arial" font-size="16" font-weight="normal">Not selected prototype storage</text><rect x="2290" y="2040" width="450" height="100" fill="#F7F9FC" stroke="#C3D2E1" stroke-width="1" /><text x="2303" y="2076.0" fill="#17324F" font-family="Arial" font-size="16" font-weight="bold">GKE — “sales profit” environment</text><text x="2303" y="2096.0" fill="#17324F" font-family="Arial" font-size="16" font-weight="normal">Provisioning reportedly started</text><text x="2303" y="2116.0" fill="#17324F" font-family="Arial" font-size="16" font-weight="normal">Deployment map / readiness unverified</text><rect x="2290" y="2180" width="450" height="100" fill="#F7F9FC" stroke="#C3D2E1" stroke-width="1" /><text x="2303" y="2206.0" fill="#17324F" font-family="Arial" font-size="16" font-weight="bold">Common Git repository / monorepo</text><text x="2303" y="2226.0" fill="#17324F" font-family="Arial" font-size="16" font-weight="normal">Modules + architecture together</text><text x="2303" y="2246.0" fill="#17324F" font-family="Arial" font-size="16" font-weight="normal">Architecture published; runtime readiness</text><text x="2303" y="2266.0" fill="#17324F" font-family="Arial" font-size="16" font-weight="normal">unverified</text><rect x="2290" y="2320" width="450" height="160" fill="#F7F9FC" stroke="#C3D2E1" stroke-width="1" /><text x="2303" y="2366.0" fill="#17324F" font-family="Arial" font-size="16" font-weight="bold">End-to-end logging / tracing</text><text x="2303" y="2386.0" fill="#17324F" font-family="Arial" font-size="16" font-weight="normal">All stages; event history and latency</text><text x="2303" y="2406.0" fill="#17324F" font-family="Arial" font-size="16" font-weight="normal">P50 / P95 / P99; backend unspecified</text><text x="2303" y="2426.0" fill="#17324F" font-family="Arial" font-size="16" font-weight="normal">Deterministic internal target ≤100–150 ms</text><text x="2303" y="2446.0" fill="#17324F" font-family="Arial" font-size="16" font-weight="normal">POC target only; end-to-end SLA TBD</text><text x="633" y="2294" fill="#FFFFFF" font-family="Arial" font-size="22" font-weight="bold">Contextual Generation — later</text><rect x="660" y="2320" width="640" height="90" fill="#FFFFFF" stroke="#9AAFBE" stroke-width="1" /><text x="673" y="2350.1" fill="#17324F" font-family="Arial" font-size="17" font-weight="bold">Selective deeper context / generation</text><text x="673" y="2371.4" fill="#17324F" font-family="Arial" font-size="17" font-weight="normal">When detected signal warrants it</text><text x="673" y="2392.6" fill="#17324F" font-family="Arial" font-size="17" font-weight="normal">Implementation not defined</text><text x="1413" y="2294" fill="#FFFFFF" font-family="Arial" font-size="22" font-weight="bold">Activation — later</text><rect x="1440" y="2320" width="345" height="90" fill="#FFFFFF" stroke="#9AAFBE" stroke-width="1" /><text x="1453" y="2361.0" fill="#17324F" font-family="Arial" font-size="16" font-weight="bold">Activation</text><text x="1453" y="2381.0" fill="#17324F" font-family="Arial" font-size="16" font-weight="normal">Signal / recommendation delivery</text><rect x="1835" y="2320" width="345" height="90" fill="#FFFFFF" stroke="#9AAFBE" stroke-width="1" /><text x="1848" y="2361.0" fill="#17324F" font-family="Arial" font-size="16" font-weight="bold">Downstream Consumers</text><text x="1848" y="2381.0" fill="#17324F" font-family="Arial" font-size="16" font-weight="normal">Boundary / contract OPEN</text><rect x="40" y="1300" width="520" height="110" fill="#FFFAED" stroke="#B38A36" stroke-width="1" stroke-dasharray="7 4" /><text x="53" y="1340.1" fill="#17324F" font-family="Arial" font-size="17" font-weight="bold">Composite Signals</text><text x="53" y="1361.4" fill="#17324F" font-family="Arial" font-size="17" font-weight="normal">Prior signal + new signal → third signal</text><text x="53" y="1382.6" fill="#17324F" font-family="Arial" font-size="17" font-weight="normal">Rule / window / lifecycle definition still open</text><rect x="40" y="1450" width="520" height="130" fill="#F7F9FC" stroke="#C3D2E1" stroke-width="1" /><text x="53" y="1491.0" fill="#17324F" font-family="Arial" font-size="16" font-weight="bold">Earlier scaling reference</text><text x="53" y="1511.0" fill="#17324F" font-family="Arial" font-size="16" font-weight="normal">Keyed stream → partitions → workers</text><text x="53" y="1531.0" fill="#17324F" font-family="Arial" font-size="16" font-weight="normal">Queue precedes ingestion workers</text><text x="53" y="1551.0" fill="#17324F" font-family="Arial" font-size="16" font-weight="normal">No broker or fixed partition count selected</text><rect x="40" y="2490" width="2700" height="75" fill="#FFFFFF" stroke="#FFFFFF" stroke-width="1" /><text x="53" y="2514.4" fill="#17324F" font-family="Arial" font-size="15" font-weight="normal">Purple: test source • Solid: source-supported logical flow   ··· Dotted: configuration   – – Amber: future / proposed / reference</text><text x="53" y="2533.1" fill="#17324F" font-family="Arial" font-size="15" font-weight="normal">Boxes are logical responsibilities unless explicitly named services; no GKE pod, trust boundary, or data-store hosting inferred.</text><text x="53" y="2551.9" fill="#17324F" font-family="Arial" font-size="15" font-weight="normal">All 74 inventory records have a disposition in diagram-coverage.md. Full source and relationship IDs remain in the records.</text><rect x="1140" y="345" width="440" height="110" fill="#FFFAED" stroke="#B38A36" stroke-width="1" stroke-dasharray="7 4" /><text x="1153" y="386.0" fill="#17324F" font-family="Arial" font-size="16" font-weight="bold">Live audio hook / connector</text><text x="1153" y="406.0" fill="#17324F" font-family="Arial" font-size="16" font-weight="normal">Acquire streaming call audio</text><text x="1153" y="426.0" fill="#17324F" font-family="Arial" font-size="16" font-weight="normal">Interface / access unverified</text><rect x="1640" y="345" width="540" height="110" fill="#FFFAED" stroke="#B38A36" stroke-width="1" stroke-dasharray="7 4" /><text x="1653" y="386.0" fill="#17324F" font-family="Arial" font-size="16" font-weight="bold">Streaming speech-to-text</text><text x="1653" y="406.0" fill="#17324F" font-family="Arial" font-size="16" font-weight="normal">Audio → transcript events</text><text x="1653" y="426.0" fill="#17324F" font-family="Arial" font-size="16" font-weight="normal">Engine / quality / latency open</text><rect x="995" y="610" width="410" height="100" fill="#FFFFFF" stroke="#9AAFBE" stroke-width="1" /><text x="1008" y="646.0" fill="#17324F" font-family="Arial" font-size="16" font-weight="bold">Multi-conversation ingress listener</text><text x="1008" y="666.0" fill="#17324F" font-family="Arial" font-size="16" font-weight="normal">Concurrent transcript streams</text><text x="1008" y="686.0" fill="#17324F" font-family="Arial" font-size="16" font-weight="normal">Carry call/session identity</text><rect x="1480" y="610" width="670" height="100" fill="#FFFFFF" stroke="#9AAFBE" stroke-width="1" /><text x="1493" y="645.1" fill="#17324F" font-family="Arial" font-size="17" font-weight="bold">Message queue / broker</text><text x="1493" y="666.4" fill="#17324F" font-family="Arial" font-size="17" font-weight="normal">Buffer incoming call events; decouple producer and workers</text><text x="1493" y="687.6" fill="#17324F" font-family="Arial" font-size="17" font-weight="normal">Technology / durability / dispatch policy open</text><text x="663" y="812" fill="#FFFFFF" font-family="Arial" font-size="20" font-weight="bold">Ingestion worker pool • concurrent service nodes</text><rect x="680" y="855" width="450" height="75" fill="#FFFFFF" stroke="#9AAFBE" stroke-width="1" /><text x="693" y="888.5" fill="#17324F" font-family="Arial" font-size="16" font-weight="bold">Worker A • illustrative instance</text><text x="693" y="908.5" fill="#17324F" font-family="Arial" font-size="16" font-weight="normal">Consume work; process independent sessions</text><rect x="1180" y="855" width="450" height="75" fill="#FFFFFF" stroke="#9AAFBE" stroke-width="1" /><text x="1193" y="888.5" fill="#17324F" font-family="Arial" font-size="16" font-weight="bold">Worker B • illustrative instance</text><text x="1193" y="908.5" fill="#17324F" font-family="Arial" font-size="16" font-weight="normal">Consume work; process independent sessions</text><rect x="1680" y="855" width="450" height="75" fill="#FFFFFF" stroke="#9AAFBE" stroke-width="1" /><text x="1693" y="888.5" fill="#17324F" font-family="Arial" font-size="16" font-weight="bold">Worker N • illustrative instance</text><text x="1693" y="908.5" fill="#17324F" font-family="Arial" font-size="16" font-weight="normal">Consume work; process independent sessions</text><text x="693" y="987" fill="#17324F" font-family="Arial" font-size="20" font-weight="bold">Ingestor service • common responsibilities across workers</text><rect x="710" y="1030" width="430" height="95" fill="#FFFFFF" stroke="#9AAFBE" stroke-width="1" /><text x="723" y="1064.4" fill="#17324F" font-family="Arial" font-size="15" font-weight="bold">Session management</text><text x="723" y="1083.1" fill="#17324F" font-family="Arial" font-size="15" font-weight="normal">call_id = session / correlation ID</text><text x="723" y="1101.9" fill="#17324F" font-family="Arial" font-size="15" font-weight="normal">Independent conversation state</text><rect x="1170" y="1030" width="430" height="95" fill="#FFFFFF" stroke="#9AAFBE" stroke-width="1" /><text x="1183" y="1064.4" fill="#17324F" font-family="Arial" font-size="15" font-weight="bold">Normalize Transcript Event</text><text x="1183" y="1083.1" fill="#17324F" font-family="Arial" font-size="15" font-weight="normal">Speaker / timestamp</text><text x="1183" y="1101.9" fill="#17324F" font-family="Arial" font-size="15" font-weight="normal">Cleanup rules remain open</text><rect x="1630" y="1030" width="490" height="95" fill="#FFFFFF" stroke="#9AAFBE" stroke-width="1" /><text x="1643" y="1064.4" fill="#17324F" font-family="Arial" font-size="15" font-weight="bold">Segmentation / buffering</text><text x="1643" y="1083.1" fill="#17324F" font-family="Arial" font-size="15" font-weight="normal">Windowing → mini-batches</text><text x="1643" y="1101.9" fill="#17324F" font-family="Arial" font-size="15" font-weight="normal">Size / ordering rules: OPEN</text><rect x="274.9" y="314.0" width="50.2" height="18" fill="white" rx="3" /><text x="300.0" y="327.0" font-family="Arial" font-size="13" fill="#35556E" text-anchor="middle">manage</text><rect x="2126.4" y="1041.5" width="117.2" height="18" fill="white" rx="3" /><text x="2185.0" y="1054.5" font-family="Arial" font-size="13" fill="#35556E" text-anchor="middle">maintain context</text><rect x="1040.5" y="1234.0" width="144.0" height="18" fill="white" rx="3" /><text x="1112.5" y="1247.0" font-family="Arial" font-size="13" fill="#35556E" text-anchor="middle">utterance / metadata</text><rect x="526.35" y="881.0" width="137.3" height="18" fill="white" rx="3" /><text x="595.0" y="894.0" font-family="Arial" font-size="13" fill="#35556E" text-anchor="middle">catalog eligibility</text><rect x="913.0" y="1224.0" width="144.0" height="18" fill="white" rx="3" /><text x="985.0" y="1237.0" font-family="Arial" font-size="13" fill="#35556E" text-anchor="middle">signal configuration</text><rect x="1965.5" y="1329.0" width="144.0" height="18" fill="white" rx="3" /><text x="2037.5" y="1342.0" font-family="Arial" font-size="13" fill="#35556E" text-anchor="middle">conversation context</text><rect x="895.7" y="1944.0" width="63.6" height="18" fill="white" rx="3" /><text x="927.5" y="1957.0" font-family="Arial" font-size="13" fill="#35556E" text-anchor="middle">evidence</text><rect x="1380.75" y="1809.0" width="110.5" height="18" fill="white" rx="3" /><text x="1436.0" y="1822.0" font-family="Arial" font-size="13" fill="#35556E" text-anchor="middle">semantic result</text><rect x="1753.0" y="1824.0" width="77.0" height="18" fill="white" rx="3" /><text x="1791.5" y="1837.0" font-family="Arial" font-size="13" fill="#35556E" text-anchor="middle">LLM result</text><rect x="1907.25" y="1544.0" width="110.5" height="18" fill="white" rx="3" /><text x="1962.5" y="1557.0" font-family="Arial" font-size="13" fill="#35556E" text-anchor="middle">Top-K retrieval</text><rect x="2151.2" y="1427.75" width="197.6" height="18" fill="white" rx="3" /><text x="2250.0" y="1440.75" font-family="Arial" font-size="13" fill="#35556E" text-anchor="middle">utterances: reference option</text><rect x="2179.05" y="1944.0" width="56.9" height="18" fill="white" rx="3" /><text x="2207.5" y="1957.0" font-family="Arial" font-size="13" fill="#35556E" text-anchor="middle">results</text><rect x="1557.35" y="2204.0" width="70.30000000000001" height="18" fill="white" rx="3" /><text x="1592.5" y="2217.0" font-family="Arial" font-size="13" fill="#35556E" text-anchor="middle">selective</text><rect x="1338.2" y="2344.0" width="63.6" height="18" fill="white" rx="3" /><text x="1370.0" y="2357.0" font-family="Arial" font-size="13" fill="#35556E" text-anchor="middle">eventual</text><rect x="1306.5" y="286.5" width="77.0" height="18" fill="white" rx="3" /><text x="1345.0" y="299.5" font-family="Arial" font-size="13" fill="#35556E" text-anchor="middle">live audio</text><rect x="1588.25" y="379.0" width="43.5" height="18" fill="white" rx="3" /><text x="1610.0" y="392.0" font-family="Arial" font-size="13" fill="#35556E" text-anchor="middle">audio</text><rect x="1493.05" y="494.0" width="123.9" height="18" fill="white" rx="3" /><text x="1555.0" y="507.0" font-family="Arial" font-size="13" fill="#35556E" text-anchor="middle">transcript stream</text><rect x="944.9" y="639.0" width="50.2" height="18" fill="white" rx="3" /><text x="970.0" y="652.0" font-family="Arial" font-size="13" fill="#35556E" text-anchor="middle">events</text><rect x="1414.05" y="639.0" width="56.9" height="18" fill="white" rx="3" /><text x="1442.5" y="652.0" font-family="Arial" font-size="13" fill="#35556E" text-anchor="middle">enqueue</text><rect x="1532.95" y="729.0" width="164.1" height="18" fill="white" rx="3" /><text x="1615.0" y="742.0" font-family="Arial" font-size="13" fill="#35556E" text-anchor="middle">consume buffered events</text></svg>