<?xml version='1.0' encoding='utf-8'?>
<svg xmlns="http://www.w3.org/2000/svg" width="2780" height="1980" viewBox="0 0 2780 1980"><rect x="0" y="0" width="2780" height="1980" fill="white" /><defs><marker id="arrow" markerWidth="8" markerHeight="8" refX="7" refY="4" orient="auto"><path d="M0,0 L8,4 L0,8 Z" fill="#5e7692" /></marker><marker id="future-arrow" markerWidth="8" markerHeight="8" refX="7" refY="4" orient="auto"><path d="M0,0 L8,4 L0,8 Z" fill="#af8a42" /></marker></defs><rect x="40" y="150" width="520" height="1110" fill="#edf3fa" stroke="#bacbdd" /><rect x="620" y="150" width="1600" height="170" fill="#edf3fa" stroke="#bacbdd" /><rect x="620" y="355" width="1600" height="285" fill="#edf3fa" stroke="#bacbdd" /><rect x="995" y="425" width="1180" height="175" fill="#ffffff" stroke="#7188a2" /><rect x="620" y="700" width="1600" height="525" fill="#edf3fa" stroke="#bacbdd" /><rect x="650" y="1000" width="330" height="160" fill="#ffffff" stroke="#7188a2" /><rect x="1020" y="940" width="640" height="265" fill="#f5f7fa" stroke="#b7c4d2" /><rect x="620" y="1265" width="1600" height="320" fill="#edf3fa" stroke="#bacbdd" /><rect x="620" y="1670" width="720" height="180" fill="#edf3fa" stroke="#bacbdd" /><rect x="1400" y="1670" width="820" height="180" fill="#edf3fa" stroke="#bacbdd" /><polyline points="300.0,315 300.0,355" fill="none" stroke="#5e7692" stroke-width="1.6" marker-end="url(#arrow)" stroke-dasharray="2 4" /><text x="300.0" y="328.0" font-family="Arial" font-size="13" fill="#45617d" text-anchor="middle">manage</text><polyline points="520,512.5 545,512.5 545,850 300,850 300.0,875" fill="none" stroke="#5e7692" stroke-width="1.6" marker-end="url(#arrow)" stroke-dasharray="2 4" /><polyline points="520,602.5 545,602.5 545,850 300,850 300.0,875" fill="none" stroke="#5e7692" stroke-width="1.6" marker-end="url(#arrow)" stroke-dasharray="2 4" /><polyline points="520,692.5 545,692.5 545,850 300,850 300.0,875" fill="none" stroke="#5e7692" stroke-width="1.6" marker-end="url(#arrow)" stroke-dasharray="2 4" /><polyline points="520,782.5 545,782.5 545,850 300,850 300.0,875" fill="none" stroke="#5e7692" stroke-width="1.6" marker-end="url(#arrow)" stroke-dasharray="2 4" /><polyline points="70,937.5 55,937 55,397 70,397.5" fill="none" stroke="#5e7692" stroke-width="1.6" marker-end="url(#arrow)" stroke-dasharray="2 4" /><polyline points="1550,255.0 1610,255.0" fill="none" stroke="#af8a42" stroke-width="1.6" marker-end="url(#future-arrow)" stroke-dasharray="7 4" /><polyline points="870.0,295 870,340 797,340 797.5,435" fill="none" stroke="#5e7692" stroke-width="1.6" marker-end="url(#arrow)" /><polyline points="945,495.0 970.0,495.0 970.0,512.5 995,512.5" fill="none" stroke="#5e7692" stroke-width="1.6" marker-end="url(#arrow)" /><polyline points="2175,512.5 2232.5,512.5 2232.5,495.0 2290,495.0" fill="none" stroke="#5e7692" stroke-width="1.6" marker-end="url(#arrow)" /><text x="2203.75" y="505.5" font-family="Arial" font-size="13" fill="#45617d" text-anchor="middle">maintain context</text><polyline points="1585.0,600 1585,675 810,675 810.0,770" fill="none" stroke="#5e7692" stroke-width="1.6" marker-end="url(#arrow)" /><text x="1197.5" y="668.0" font-family="Arial" font-size="13" fill="#45617d" text-anchor="middle">utterance / metadata</text><polyline points="530,397.5 595,397 595,817 650,817.5" fill="none" stroke="#5e7692" stroke-width="1.6" marker-end="url(#arrow)" stroke-dasharray="2 4" /><text x="595.0" y="600.0" font-family="Arial" font-size="13" fill="#45617d" text-anchor="middle">catalog eligibility</text><polyline points="970,817.5 1040,817.5" fill="none" stroke="#5e7692" stroke-width="1.6" marker-end="url(#arrow)" /><polyline points="530,937.5 580,937 580,665 1390,665 1390.0,770" fill="none" stroke="#5e7692" stroke-width="1.6" marker-end="url(#arrow)" stroke-dasharray="2 4" /><text x="985.0" y="658.0" font-family="Arial" font-size="13" fill="#45617d" text-anchor="middle">signal configuration</text><polyline points="2290,495.0 2275,495 2275,760 1800,760 1800,817 1740,817.5" fill="none" stroke="#5e7692" stroke-width="1.6" marker-end="url(#arrow)" /><text x="2037.5" y="753.0" font-family="Arial" font-size="13" fill="#45617d" text-anchor="middle">conversation context</text><polyline points="1390.0,865 1390,895 815,895 815.0,1000" fill="none" stroke="#5e7692" stroke-width="1.6" marker-end="url(#arrow)" /><polyline points="1390.0,865 1390,910 1125,910 1125.0,1010" fill="none" stroke="#5e7692" stroke-width="1.6" marker-end="url(#arrow)" /><polyline points="1390.0,865 1390,925 1955,925 1955.0,1000" fill="none" stroke="#5e7692" stroke-width="1.6" marker-end="url(#arrow)" /><polyline points="1210,1042.5 1240,1042.5" fill="none" stroke="#5e7692" stroke-width="1.6" marker-end="url(#arrow)" /><polyline points="1420,1042.5 1450,1042.5" fill="none" stroke="#5e7692" stroke-width="1.6" marker-end="url(#arrow)" /><polyline points="1542.5,1075 1542,1147 1420,1147.5" fill="none" stroke="#5e7692" stroke-width="1.6" marker-end="url(#arrow)" /><polyline points="815.0,1160 815,1377 1040,1377.5" fill="none" stroke="#5e7692" stroke-width="1.6" marker-end="url(#arrow)" /><text x="927.5" y="1370.25" font-family="Arial" font-size="13" fill="#45617d" text-anchor="middle">evidence</text><polyline points="1325,1377.5 1400,1377.5" fill="none" stroke="#5e7692" stroke-width="1.6" marker-end="url(#arrow)" /><polyline points="1685,1377.5 1722.5,1377.5 1722.5,1375.0 1760,1375.0" fill="none" stroke="#5e7692" stroke-width="1.6" marker-end="url(#arrow)" /><polyline points="1330.0,1185 1330,1240 1542,1240 1542.5,1330" fill="none" stroke="#5e7692" stroke-width="1.6" marker-end="url(#arrow)" /><text x="1436.0" y="1233.0" font-family="Arial" font-size="13" fill="#45617d" text-anchor="middle">semantic result</text><polyline points="1955.0,1160 1955,1295 1628,1295 1628.0,1330" fill="none" stroke="#5e7692" stroke-width="1.6" marker-end="url(#arrow)" /><text x="1791.5" y="1288.0" font-family="Arial" font-size="13" fill="#45617d" text-anchor="middle">LLM result</text><polyline points="1542.5,1425 1542,1460 805,1460 805.0,1485" fill="none" stroke="#5e7692" stroke-width="1.6" marker-end="url(#arrow)" /><polyline points="960,1520.0 1040,1520.0" fill="none" stroke="#5e7692" stroke-width="1.6" marker-end="url(#arrow)" /><polyline points="1330.0,1075 1330,1090 1685,1090 1685,880 2240,880 2240,952 2290,952.5" fill="none" stroke="#5e7692" stroke-width="1.6" marker-end="url(#arrow)" /><text x="1962.5" y="873.0" font-family="Arial" font-size="13" fill="#45617d" text-anchor="middle">Top-K retrieval</text><polyline points="520,692.5 610,692 610,125 2760,125 2760,840 2515,840 2515.0,885" fill="none" stroke="#5e7692" stroke-width="1.6" marker-end="url(#arrow)" stroke-dasharray="2 4" /><polyline points="2175,512.5 2250,512 2250,1245 2515,1245 2515.0,1265" fill="none" stroke="#af8a42" stroke-width="1.6" marker-end="url(#future-arrow)" stroke-dasharray="7 4" /><text x="2250.0" y="871.5" font-family="Arial" font-size="13" fill="#45617d" text-anchor="middle">utterances: reference option</text><polyline points="2180,1375.0 2235.0,1375.0 2235.0,1332.5 2290,1332.5" fill="none" stroke="#af8a42" stroke-width="1.6" marker-end="url(#future-arrow)" stroke-dasharray="7 4" /><text x="2207.5" y="1368.0" font-family="Arial" font-size="13" fill="#45617d" text-anchor="middle">results</text><polyline points="2180,1375.0 2205,1375 2205,1635 980,1635 980.0,1730" fill="none" stroke="#5e7692" stroke-width="1.6" marker-end="url(#arrow)" /><text x="1592.5" y="1628.0" font-family="Arial" font-size="13" fill="#45617d" text-anchor="middle">selective</text><polyline points="1300,1775.0 1440,1775.0" fill="none" stroke="#5e7692" stroke-width="1.6" marker-end="url(#arrow)" /><text x="1370.0" y="1768.0" font-family="Arial" font-size="13" fill="#45617d" text-anchor="middle">eventual [A10]</text><polyline points="1785,1775.0 1835,1775.0" fill="none" stroke="#5e7692" stroke-width="1.6" marker-end="url(#arrow)" /><rect x="40" y="20" width="2700" height="55" fill="#ffffff" stroke="#ffffff" /><text x="53" y="60.2" fill="#17324f" font-family="Arial" font-size="34" font-weight="bold">VANTAGE Intelligence | Consolidated layered architecture</text><rect x="40" y="80" width="2700" height="35" fill="#ffffff" stroke="#ffffff" /><text x="53" y="104.2" fill="#17324f" font-family="Arial" font-size="18" font-weight="normal">v1.1 • 08 Oct 2026 • Logical design review baseline • Source-supported does not mean deployed or production-approved</text><text x="53" y="184" fill="#17324f" font-family="Arial" font-size="22" font-weight="bold">Signal Management  [M05 / P05]</text><rect x="70" y="220" width="460" height="95" fill="#ffffff" stroke="#7188a2" /><text x="83" y="263.2" fill="#17324f" font-family="Arial" font-size="17" font-weight="normal">Signal Management UI</text><text x="83" y="284.5" fill="#17324f" font-family="Arial" font-size="17" font-weight="normal">Manage catalog; view signals [M05.5]</text><rect x="70" y="355" width="460" height="85" fill="#ffffff" stroke="#7188a2" /><text x="83" y="393.2" fill="#17324f" font-family="Arial" font-size="17" font-weight="normal">Signal Catalog</text><text x="83" y="414.5" fill="#17324f" font-family="Arial" font-size="17" font-weight="normal">Applicable signal definitions [M04 / M05]</text><rect x="70" y="480" width="450" height="65" fill="#ffffff" stroke="#7188a2" /><text x="83" y="508.8" fill="#17324f" font-family="Arial" font-size="15" font-weight="normal">Signal Taxonomy</text><text x="83" y="527.5" fill="#17324f" font-family="Arial" font-size="15" font-weight="normal">Domain → Group → Signal [P01 / P05]</text><rect x="70" y="570" width="450" height="65" fill="#ffffff" stroke="#7188a2" /><text x="83" y="598.8" fill="#17324f" font-family="Arial" font-size="15" font-weight="normal">Entity Dictionary</text><text x="83" y="617.5" fill="#17324f" font-family="Arial" font-size="15" font-weight="normal">Products, fees, benefits, credit concepts [P05]</text><rect x="70" y="660" width="450" height="65" fill="#ffffff" stroke="#7188a2" /><text x="83" y="688.8" fill="#17324f" font-family="Arial" font-size="15" font-weight="normal">Curated Examples</text><text x="83" y="707.5" fill="#17324f" font-family="Arial" font-size="15" font-weight="normal">Positive / Negative [P02 / P05]</text><rect x="70" y="750" width="450" height="65" fill="#ffffff" stroke="#7188a2" /><text x="83" y="778.8" fill="#17324f" font-family="Arial" font-size="15" font-weight="normal">Regulatory / Policy Mappings</text><text x="83" y="797.5" fill="#17324f" font-family="Arial" font-size="15" font-weight="normal">Reference metadata; not a policy service [P05]</text><rect x="70" y="875" width="460" height="125" fill="#ffffff" stroke="#7188a2" /><text x="83" y="913.5" fill="#17324f" font-family="Arial" font-size="16" font-weight="normal">Signal Definitions / schema</text><text x="83" y="933.5" fill="#17324f" font-family="Arial" font-size="16" font-weight="normal">Detection method • criteria • thresholds</text><text x="83" y="953.5" fill="#17324f" font-family="Arial" font-size="16" font-weight="normal">Unified deterministic / semantic / LLM definition</text><text x="83" y="973.5" fill="#17324f" font-family="Arial" font-size="16" font-weight="normal">Exact schema still under agreement [M05 / P01–P02]</text><rect x="70" y="1030" width="460" height="200" fill="#f5f7fa" stroke="#b7c4d2" /><text x="83" y="1079.4" fill="#17324f" font-family="Arial" font-size="15" font-weight="normal">Planning fields [P01–P02]</text><text x="83" y="1098.1" fill="#17324f" font-family="Arial" font-size="15" font-weight="normal">signal_id / name / description / domain / group</text><text x="83" y="1116.9" fill="#17324f" font-family="Arial" font-size="15" font-weight="normal">detection_method / detection_config</text><text x="83" y="1135.6" fill="#17324f" font-family="Arial" font-size="15" font-weight="normal">applicable_products / applicable_speakers</text><text x="83" y="1154.4" fill="#17324f" font-family="Arial" font-size="15" font-weight="normal">entity_refs / example_refs / requirement_refs</text><text x="83" y="1173.1" fill="#17324f" font-family="Arial" font-size="15" font-weight="normal">regulatory_refs / severity / version / status</text><text x="83" y="1191.9" fill="#17324f" font-family="Arial" font-size="15" font-weight="normal">Types, requiredness and lifecycle rules: OPEN</text><text x="633" y="184" fill="#17324f" font-family="Arial" font-size="22" font-weight="bold">Conversation sources / adapters</text><rect x="650" y="215" width="440" height="80" fill="#ffffff" stroke="#7188a2" /><text x="663" y="240.1" fill="#17324f" font-family="Arial" font-size="17" font-weight="normal">Transcript Emulator</text><text x="663" y="261.4" fill="#17324f" font-family="Arial" font-size="17" font-weight="normal">Separate module/service [U06]</text><text x="663" y="282.6" fill="#17324f" font-family="Arial" font-size="17" font-weight="normal">Concurrent streams requested [M05]</text><rect x="1140" y="215" width="410" height="80" fill="#fff8e8" stroke="#b79345" stroke-dasharray="7 4" /><text x="1153" y="241.0" fill="#17324f" font-family="Arial" font-size="16" font-weight="normal">Genesys Cloud</text><text x="1153" y="261.0" fill="#17324f" font-family="Arial" font-size="16" font-weight="normal">Future live source [A02 / M05]</text><text x="1153" y="281.0" fill="#17324f" font-family="Arial" font-size="16" font-weight="normal">OAuth in reference; live setup TBD</text><rect x="1610" y="215" width="570" height="80" fill="#fff8e8" stroke="#b79345" stroke-dasharray="7 4" /><text x="1623" y="251.0" fill="#17324f" font-family="Arial" font-size="16" font-weight="normal">Future Genesys / outreach adapters</text><text x="1623" y="271.0" fill="#17324f" font-family="Arial" font-size="16" font-weight="normal">Provider contracts not established [M05.4]</text><text x="633" y="389" fill="#17324f" font-family="Arial" font-size="22" font-weight="bold">Interaction Streaming  [A01 / M05]</text><rect x="650" y="435" width="295" height="120" fill="#ffffff" stroke="#7188a2" /><text x="663" y="469.5" fill="#17324f" font-family="Arial" font-size="17" font-weight="normal">Default WebSocket adapter</text><text x="663" y="490.8" fill="#17324f" font-family="Arial" font-size="17" font-weight="normal">Initial adapter construct</text><text x="663" y="512.0" fill="#17324f" font-family="Arial" font-size="17" font-weight="normal">Packaging within Ingestor:</text><text x="663" y="533.2" fill="#17324f" font-family="Arial" font-size="17" font-weight="normal">OPEN</text><text x="1008" y="457" fill="#17324f" font-family="Arial" font-size="20" font-weight="bold">Ingestor service / Call Ingestor  [M05.2–4 / P05]</text><rect x="1020" y="490" width="345" height="85" fill="#ffffff" stroke="#7188a2" /><text x="1033" y="519.4" fill="#17324f" font-family="Arial" font-size="15" font-weight="normal">Session management</text><text x="1033" y="538.1" fill="#17324f" font-family="Arial" font-size="15" font-weight="normal">call_id = session / correlation ID</text><text x="1033" y="556.9" fill="#17324f" font-family="Arial" font-size="15" font-weight="normal">Independent calls [M05.4]</text><rect x="1410" y="490" width="345" height="85" fill="#ffffff" stroke="#7188a2" /><text x="1423" y="519.4" fill="#17324f" font-family="Arial" font-size="15" font-weight="normal">Normalize Transcript Event</text><text x="1423" y="538.1" fill="#17324f" font-family="Arial" font-size="15" font-weight="normal">Speaker / timestamp [P05]</text><text x="1423" y="556.9" fill="#17324f" font-family="Arial" font-size="15" font-weight="normal">Cleanup rules remain open</text><rect x="1800" y="490" width="345" height="85" fill="#ffffff" stroke="#7188a2" /><text x="1813" y="519.4" fill="#17324f" font-family="Arial" font-size="15" font-weight="normal">Segmentation / buffering</text><text x="1813" y="538.1" fill="#17324f" font-family="Arial" font-size="15" font-weight="normal">Windowing → mini-batches</text><text x="1813" y="556.9" fill="#17324f" font-family="Arial" font-size="15" font-weight="normal">Size / ordering rules: OPEN</text><rect x="2290" y="425" width="450" height="140" fill="#f5f7fa" stroke="#b7c4d2" /><text x="2303" y="471.0" fill="#17324f" font-family="Arial" font-size="16" font-weight="normal">Context Cache  [M04 / P05]</text><text x="2303" y="491.0" fill="#17324f" font-family="Arial" font-size="16" font-weight="normal">In-memory, same conversation only</text><text x="2303" y="511.0" fill="#17324f" font-family="Arial" font-size="16" font-weight="normal">Recent utterance window + identified signals</text><text x="2303" y="531.0" fill="#17324f" font-family="Arial" font-size="16" font-weight="normal">Bounded hot-path context; TTL / owner OPEN</text><rect x="2290" y="605" width="450" height="135" fill="#f5f7fa" stroke="#b7c4d2" /><text x="2303" y="638.5" fill="#17324f" font-family="Arial" font-size="16" font-weight="normal">Storage distinction</text><text x="2303" y="658.5" fill="#17324f" font-family="Arial" font-size="16" font-weight="normal">Keep recent detection context separate from the</text><text x="2303" y="678.5" fill="#17324f" font-family="Arial" font-size="16" font-weight="normal">larger conversation log.</text><text x="2303" y="698.5" fill="#17324f" font-family="Arial" font-size="16" font-weight="normal">No unlimited-history dependency or mandatory</text><text x="2303" y="718.5" fill="#17324f" font-family="Arial" font-size="16" font-weight="normal">entity enrichment inferred.</text><text x="633" y="734" fill="#17324f" font-family="Arial" font-size="22" font-weight="bold">Real-time Signal Detection  [A01 / M02 / M05]</text><rect x="650" y="770" width="320" height="95" fill="#ffffff" stroke="#7188a2" /><text x="663" y="792.0" fill="#17324f" font-family="Arial" font-size="17" font-weight="normal">Call-metadata applicability</text><text x="663" y="813.2" fill="#17324f" font-family="Arial" font-size="17" font-weight="normal">Select catalog signals for this</text><text x="663" y="834.5" fill="#17324f" font-family="Arial" font-size="17" font-weight="normal">call</text><text x="663" y="855.8" fill="#17324f" font-family="Arial" font-size="17" font-weight="normal">Before detection [M04]</text><rect x="1040" y="770" width="700" height="95" fill="#ffffff" stroke="#7188a2" /><text x="1053" y="802.6" fill="#17324f" font-family="Arial" font-size="17" font-weight="normal">Detector service / Signal Detector</text><text x="1053" y="823.9" fill="#17324f" font-family="Arial" font-size="17" font-weight="normal">Configured method; not automatic all-path execution</text><text x="1053" y="845.1" fill="#17324f" font-family="Arial" font-size="17" font-weight="normal">Scheduling and fallback policy: OPEN [M05 / P05]</text><text x="663" y="1028" fill="#17324f" font-family="Arial" font-size="16" font-weight="bold">Deterministic Detector [A05]</text><rect x="670" y="1060" width="135" height="35" fill="#ffffff" stroke="#7188a2" /><text x="683" y="1082.8" fill="#17324f" font-family="Arial" font-size="14" font-weight="normal">Rules</text><rect x="825" y="1060" width="135" height="35" fill="#ffffff" stroke="#7188a2" /><text x="838" y="1082.8" fill="#17324f" font-family="Arial" font-size="14" font-weight="normal">Regex</text><rect x="670" y="1110" width="135" height="35" fill="#ffffff" stroke="#7188a2" /><text x="683" y="1132.8" fill="#17324f" font-family="Arial" font-size="14" font-weight="normal">Fuzzy</text><rect x="825" y="1110" width="135" height="35" fill="#ffffff" stroke="#7188a2" /><text x="838" y="1132.8" fill="#17324f" font-family="Arial" font-size="14" font-weight="normal">Entity rules</text><text x="1033" y="968" fill="#17324f" font-family="Arial" font-size="16" font-weight="bold">Semantic strategy [M02 / M05]</text><text x="1033" y="988.0" fill="#17324f" font-family="Arial" font-size="16" font-weight="bold">Top-K + reranker retained; thresholds unspecified</text><rect x="1040" y="1010" width="170" height="65" fill="#ffffff" stroke="#7188a2" /><text x="1053" y="1038.8" fill="#17324f" font-family="Arial" font-size="15" font-weight="normal">Embedding</text><text x="1053" y="1057.5" fill="#17324f" font-family="Arial" font-size="15" font-weight="normal">Utterance vector</text><rect x="1240" y="1010" width="180" height="65" fill="#ffffff" stroke="#7188a2" /><text x="1253" y="1039.0" fill="#17324f" font-family="Arial" font-size="14" font-weight="normal">Vector Search</text><text x="1253" y="1056.5" fill="#17324f" font-family="Arial" font-size="14" font-weight="normal">Similarity retrieval</text><rect x="1450" y="1010" width="185" height="65" fill="#ffffff" stroke="#7188a2" /><text x="1463" y="1038.8" fill="#17324f" font-family="Arial" font-size="15" font-weight="normal">Top-K candidates</text><text x="1463" y="1057.5" fill="#17324f" font-family="Arial" font-size="15" font-weight="normal">K not selected</text><rect x="1240" y="1110" width="180" height="75" fill="#ffffff" stroke="#7188a2" /><text x="1253" y="1134.4" fill="#17324f" font-family="Arial" font-size="15" font-weight="normal">Reranker</text><text x="1253" y="1153.1" fill="#17324f" font-family="Arial" font-size="15" font-weight="normal">BGE label in S02</text><text x="1253" y="1171.9" fill="#17324f" font-family="Arial" font-size="15" font-weight="normal">Exact model OPEN</text><rect x="1730" y="1000" width="450" height="160" fill="#ffffff" stroke="#7188a2" /><text x="1743" y="1046.0" fill="#17324f" font-family="Arial" font-size="16" font-weight="normal">LLM-based detection</text><text x="1743" y="1066.0" fill="#17324f" font-family="Arial" font-size="16" font-weight="normal">Candidate + requirement + context</text><text x="1743" y="1086.0" fill="#17324f" font-family="Arial" font-size="16" font-weight="normal">Model / endpoint / invocation policy OPEN</text><text x="1743" y="1106.0" fill="#17324f" font-family="Arial" font-size="16" font-weight="normal">Distinct from later generation</text><text x="1743" y="1126.0" fill="#17324f" font-family="Arial" font-size="16" font-weight="normal">[M05.3 / P04 / P05]</text><text x="633" y="1299" fill="#17324f" font-family="Arial" font-size="22" font-weight="bold">Signal evidence, resolution and output  [A05 / A09 / P05]</text><rect x="1040" y="1340" width="285" height="75" fill="#ffffff" stroke="#7188a2" /><text x="1053" y="1373.2" fill="#17324f" font-family="Arial" font-size="17" font-weight="normal">Signal Evidence</text><text x="1053" y="1394.5" fill="#17324f" font-family="Arial" font-size="17" font-weight="normal">[A05 / A06]</text><rect x="1400" y="1330" width="285" height="95" fill="#ffffff" stroke="#7188a2" /><text x="1413" y="1363.5" fill="#17324f" font-family="Arial" font-size="16" font-weight="normal">Signal Resolution</text><text x="1413" y="1383.5" fill="#17324f" font-family="Arial" font-size="16" font-weight="normal">Threshold-based acceptance</text><text x="1413" y="1403.5" fill="#17324f" font-family="Arial" font-size="16" font-weight="normal">[U07]</text><rect x="1760" y="1320" width="420" height="110" fill="#ffffff" stroke="#7188a2" /><text x="1773" y="1351.0" fill="#17324f" font-family="Arial" font-size="16" font-weight="normal">Detected Signal</text><text x="1773" y="1371.0" fill="#17324f" font-family="Arial" font-size="16" font-weight="normal">Signal ID • domain/group • evidence</text><text x="1773" y="1391.0" fill="#17324f" font-family="Arial" font-size="16" font-weight="normal">Confidence • entities • regulatory mapping</text><text x="1773" y="1411.0" fill="#17324f" font-family="Arial" font-size="16" font-weight="normal">Reference result fields [P05]</text><rect x="650" y="1485" width="310" height="70" fill="#ffffff" stroke="#7188a2" /><text x="663" y="1515.8" fill="#17324f" font-family="Arial" font-size="17" font-weight="normal">Signal Events</text><text x="663" y="1537.0" fill="#17324f" font-family="Arial" font-size="17" font-weight="normal">POC output [A09]</text><rect x="1040" y="1485" width="490" height="70" fill="#ffffff" stroke="#7188a2" /><text x="1053" y="1515.8" fill="#17324f" font-family="Arial" font-size="17" font-weight="normal">Real-Time Signal Workbench</text><text x="1053" y="1537.0" fill="#17324f" font-family="Arial" font-size="17" font-weight="normal">Evidence + latency display [A10]</text><rect x="1610" y="1485" width="570" height="70" fill="#f5f7fa" stroke="#b7c4d2" /><text x="1623" y="1516.2" fill="#17324f" font-family="Arial" font-size="15" font-weight="normal">Delivery mechanism: SSE / WebSocket proposed in S03</text><text x="1623" y="1535.0" fill="#17324f" font-family="Arial" font-size="15" font-weight="normal">Final event contract / publication transport remain OPEN</text><rect x="2290" y="885" width="450" height="135" fill="#f5f7fa" stroke="#b7c4d2" /><text x="2303" y="928.5" fill="#17324f" font-family="Arial" font-size="16" font-weight="normal">Vector DB  [M05.8 / P05]</text><text x="2303" y="948.5" fill="#17324f" font-family="Arial" font-size="16" font-weight="normal">PostgreSQL / “p vector” as reported</text><text x="2303" y="968.5" fill="#17324f" font-family="Arial" font-size="16" font-weight="normal">Signal examples + semantic representations</text><text x="2303" y="988.5" fill="#17324f" font-family="Arial" font-size="16" font-weight="normal">Exact instance / extension / readiness OPEN</text><rect x="2290" y="1265" width="450" height="135" fill="#fff8e8" stroke="#b79345" stroke-dasharray="7 4" /><text x="2303" y="1308.5" fill="#17324f" font-family="Arial" font-size="16" font-weight="normal">BigQuery — Utterance &amp; Call Log</text><text x="2303" y="1328.5" fill="#17324f" font-family="Arial" font-size="16" font-weight="normal">REFERENCE OPTION ONLY [P05 / U06]</text><text x="2303" y="1348.5" fill="#17324f" font-family="Arial" font-size="16" font-weight="normal">Persist utterances and detected results</text><text x="2303" y="1368.5" fill="#17324f" font-family="Arial" font-size="16" font-weight="normal">Not selected prototype storage</text><rect x="2290" y="1450" width="450" height="100" fill="#f5f7fa" stroke="#b7c4d2" /><text x="2303" y="1486.0" fill="#17324f" font-family="Arial" font-size="16" font-weight="normal">GKE — “sales profit” environment</text><text x="2303" y="1506.0" fill="#17324f" font-family="Arial" font-size="16" font-weight="normal">Provisioning reportedly started [M05.8]</text><text x="2303" y="1526.0" fill="#17324f" font-family="Arial" font-size="16" font-weight="normal">Deployment map / readiness unverified</text><rect x="2290" y="1590" width="450" height="100" fill="#f5f7fa" stroke="#b7c4d2" /><text x="2303" y="1626.0" fill="#17324f" font-family="Arial" font-size="16" font-weight="normal">Common Git repository / monorepo</text><text x="2303" y="1646.0" fill="#17324f" font-family="Arial" font-size="16" font-weight="normal">Modules + architecture together [M05.9]</text><text x="2303" y="1666.0" fill="#17324f" font-family="Arial" font-size="16" font-weight="normal">No repo URL or module paths supplied</text><rect x="2290" y="1730" width="450" height="160" fill="#f5f7fa" stroke="#b7c4d2" /><text x="2303" y="1776.0" fill="#17324f" font-family="Arial" font-size="16" font-weight="normal">End-to-end logging / tracing [M05 / A08]</text><text x="2303" y="1796.0" fill="#17324f" font-family="Arial" font-size="16" font-weight="normal">All stages; event history and latency</text><text x="2303" y="1816.0" fill="#17324f" font-family="Arial" font-size="16" font-weight="normal">P50 / P95 / P99; backend unspecified</text><text x="2303" y="1836.0" fill="#17324f" font-family="Arial" font-size="16" font-weight="normal">Deterministic internal target ≤100–150 ms</text><text x="2303" y="1856.0" fill="#17324f" font-family="Arial" font-size="16" font-weight="normal">POC target only; end-to-end SLA TBD</text><text x="633" y="1704" fill="#17324f" font-family="Arial" font-size="22" font-weight="bold">Contextual Generation — later [A01]</text><rect x="660" y="1730" width="640" height="90" fill="#ffffff" stroke="#7188a2" /><text x="673" y="1760.1" fill="#17324f" font-family="Arial" font-size="17" font-weight="normal">Selective deeper context / generation</text><text x="673" y="1781.4" fill="#17324f" font-family="Arial" font-size="17" font-weight="normal">When detected signal warrants it</text><text x="673" y="1802.6" fill="#17324f" font-family="Arial" font-size="17" font-weight="normal">Implementation not defined</text><text x="1413" y="1704" fill="#17324f" font-family="Arial" font-size="22" font-weight="bold">Activation — later [A01 / A10]</text><rect x="1440" y="1730" width="345" height="90" fill="#ffffff" stroke="#7188a2" /><text x="1453" y="1771.0" fill="#17324f" font-family="Arial" font-size="16" font-weight="normal">Activation</text><text x="1453" y="1791.0" fill="#17324f" font-family="Arial" font-size="16" font-weight="normal">Signal / recommendation delivery</text><rect x="1835" y="1730" width="345" height="90" fill="#ffffff" stroke="#7188a2" /><text x="1848" y="1771.0" fill="#17324f" font-family="Arial" font-size="16" font-weight="normal">Downstream Consumers</text><text x="1848" y="1791.0" fill="#17324f" font-family="Arial" font-size="16" font-weight="normal">Boundary / contract OPEN</text><rect x="40" y="1300" width="520" height="110" fill="#fff8e8" stroke="#b79345" stroke-dasharray="7 4" /><text x="53" y="1340.1" fill="#17324f" font-family="Arial" font-size="17" font-weight="normal">Composite Signals [M05.6]</text><text x="53" y="1361.4" fill="#17324f" font-family="Arial" font-size="17" font-weight="normal">Prior signal + new signal → third signal</text><text x="53" y="1382.6" fill="#17324f" font-family="Arial" font-size="17" font-weight="normal">Rule / window / lifecycle definition still open</text><rect x="40" y="1450" width="520" height="130" fill="#f5f7fa" stroke="#b7c4d2" /><text x="53" y="1491.0" fill="#17324f" font-family="Arial" font-size="16" font-weight="normal">Earlier scaling reference retained [A04]</text><text x="53" y="1511.0" fill="#17324f" font-family="Arial" font-size="16" font-weight="normal">Internal Transcript Stream → partitions → workers</text><text x="53" y="1531.0" fill="#17324f" font-family="Arial" font-size="16" font-weight="normal">Conversation-keyed processing; counts illustrative</text><text x="53" y="1551.0" fill="#17324f" font-family="Arial" font-size="16" font-weight="normal">Not a mandated broker in the current prototype</text><rect x="40" y="1900" width="2700" height="75" fill="#ffffff" stroke="#ffffff" /><text x="53" y="1924.4" fill="#17324f" font-family="Arial" font-size="15" font-weight="normal">Solid: source-supported logical flow   ··· Dotted: configuration   – – Amber: future / proposed / reference</text><text x="53" y="1943.1" fill="#17324f" font-family="Arial" font-size="15" font-weight="normal">Boxes are logical responsibilities unless explicitly named services; no GKE pod, trust boundary, or data-store hosting inferred.</text><text x="53" y="1961.9" fill="#17324f" font-family="Arial" font-size="15" font-weight="normal">All 70 inventory records have a disposition in diagram-coverage.md. Full source and relationship IDs remain in the records.</text></svg>